<svg xmlns="http://www.w3.org/2000/svg" width="600" height="600" fill="none">
  <defs>
    <pattern id="circuit-pro" width="300" height="300" patternUnits="userSpaceOnUse">
      <path
        d="M30 30h90v45H30V30Zm120 0h60v30h-60V30Zm0 60h90v60h-90V90Zm-120 90h45v45H30v-45Zm165-45h75v30h-75v-30Zm0 60v45h30v-45h-30Z"
        stroke="#38bdf8"
        stroke-width="1.2"
        stroke-opacity="0.4"
        fill="none"
      />
      <path
        d="M120 30v60M210 60v90M75 165v45M240 120h45"
        stroke="#818cf8"
        stroke-width="1"
        stroke-opacity="0.25"
        fill="none"
      />
      <circle cx="30" cy="30" r="2.5" fill="#22d3ee" fill-opacity="0.6" />
      <circle cx="120" cy="30" r="2" fill="#6366f1" fill-opacity="0.55" />
      <circle cx="210" cy="60" r="2.5" fill="#38bdf8" fill-opacity="0.6" />
      <circle cx="75" cy="165" r="2" fill="#a855f7" fill-opacity="0.5" />
      <circle cx="240" cy="120" r="2.5" fill="#22d3ee" fill-opacity="0.55" />
      <circle cx="270" cy="195" r="2" fill="#818cf8" fill-opacity="0.5" />
      <rect x="145" y="145" width="18" height="18" rx="3" stroke="#22d3ee" stroke-opacity="0.2" fill="rgba(34,211,238,0.05)" />
      <rect x="55" y="95" width="14" height="14" rx="2" stroke="#818cf8" stroke-opacity="0.18" fill="rgba(129,140,248,0.04)" />
    </pattern>
    <linearGradient id="circuit-glow" x1="0" y1="0" x2="300" y2="300">
      <stop offset="0%" stop-color="#22d3ee" stop-opacity="0.08" />
      <stop offset="50%" stop-color="#6366f1" stop-opacity="0.04" />
      <stop offset="100%" stop-color="#a855f7" stop-opacity="0.08" />
    </linearGradient>
  </defs>
  <rect width="600" height="600" fill="url(#circuit-glow)" />
  <rect width="600" height="600" fill="url(#circuit-pro)" />
</svg>
