<svg xmlns="http://www.w3.org/2000/svg" viewBox="0 0 64 64" fill="none">
  <rect width="64" height="64" rx="12" fill="#F05032"/>
  <path fill="#fff" d="M32 12c-11 0-20 9-20 20 0 8.8 5.7 16.3 13.6 19l1.1-2.9c-1.8-.7-3.4-1.8-4.6-3.2l2.2-2.2c1.5 1.5 3.6 2.4 5.9 2.4 4.6 0 8.3-3.7 8.3-8.3 0-1.8-.6-3.5-1.6-4.9l2.2-2.2 2.2 2.2c-1 1.4-1.6 3.1-1.6 4.9 0 2.3.9 4.4 2.4 5.9l-2.2 2.2c-1.4-1-3.1-1.6-4.9-1.6-2.3 0-4.4.9-5.9 2.4l-2.2-2.2c1.4-1 3.1-1.6 4.9-1.6 1.2 0 2.3.3 3.3.8l2.2-2.2c-2.2-1.3-4.8-2-7.5-2-7.7 0-14 6.3-14 14s6.3 14 14 14 14-6.3 14-14c0-2.7-.7-5.3-2-7.5l2.2-2.2c.5 1 0.8 2.1 0.8 3.3 0 4.6-3.7 8.3-8.3 8.3-2.3 0-4.4-.9-5.9-2.4l2.2-2.2c1.5 1.5 3.6 2.4 5.9 2.4 2.8 0 5-2.2 5-5s-2.2-5-5-5c-1.2 0-2.3.4-3.2 1.1l-2.2-2.2C28.7 17.7 30.3 17 32 17c4.6 0 8.3 3.7 8.3 8.3 0 1.8-.6 3.5-1.6 4.9l2.2 2.2c1-1.4 1.6-3.1 1.6-4.9 0-4.6-3.7-8.3-8.3-8.3Z"/>
</svg>
