<svg xmlns="http://www.w3.org/2000/svg" viewBox="0 0 64 64" fill="none">
  <rect width="64" height="64" rx="12" fill="#F7DF1E"/>
  <path fill="#000" d="M18 48c1.8 3 4.5 5.2 8.8 5.2 4.1 0 6.7-2.1 6.7-5 0-3.5-2.8-4.7-7.5-6.7-3.2-1.3-5.4-2.2-5.4-4.8 0-1.9 1.5-3.4 3.9-3.4 1.7 0 2.9.6 3.8 2l3.3-2.1c-1.8-3.1-4.5-4.4-7.1-4.4-4.2 0-7.2 2.6-7.2 6.4 0 4 2.5 5.4 8.2 7.5 3.1 1.2 4.8 2 4.8 4.3 0 2.3-1.8 3.6-4.3 3.6-2.6 0-4.4-1.3-5.6-3.8L18 48Zm22.5 0c1.8 3 4.5 5.2 8.8 5.2 4.1 0 6.7-2.1 6.7-5 0-3.5-2.8-4.7-7.5-6.7-3.2-1.3-5.4-2.2-5.4-4.8 0-1.9 1.5-3.4 3.9-3.4 1.7 0 2.9.6 3.8 2l3.3-2.1c-1.8-3.1-4.5-4.4-7.1-4.4-4.2 0-7.2 2.6-7.2 6.4 0 4 2.5 5.4 8.2 7.5 3.1 1.2 4.8 2 4.8 4.3 0 2.3-1.8 3.6-4.3 3.6-2.6 0-4.4-1.3-5.6-3.8l-3.4 3.2Z"/>
</svg>
