<svg xmlns="http://www.w3.org/2000/svg" viewBox="0 0 120 120" fill="none">
  <path d="M60 18 C88 18 104 42 104 68 C104 94 84 104 60 104 C36 104 16 94 16 68 C16 42 32 18 60 18Z" fill="#FDA4AF" stroke="#fff" stroke-width="5"/>
  <path d="M60 28 C78 28 90 46 90 68 C90 86 76 94 60 94 C44 94 30 86 30 68 C30 46 42 28 60 28Z" fill="#FB7185" stroke="#fff" stroke-width="3"/>
  <path d="M60 38 V94" stroke="#FFE4E6" stroke-width="3" stroke-linecap="round"/>
  <path d="M42 52 C52 58 68 58 78 52" stroke="#FFE4E6" stroke-width="3" stroke-linecap="round"/>
  <path d="M38 68 C50 74 70 74 82 68" stroke="#FFE4E6" stroke-width="3" stroke-linecap="round"/>
</svg>
